<svg xmlns="http://www.w3.org/2000/svg" viewBox="0 0 260.46 51.31"><defs><style>.a,.b,.c,.d{fill:#065adc;isolation:isolate;}.a{opacity:0.67;}.b{opacity:0.62;}.c{opacity:0.61;}.d{opacity:0.35;}.e{fill:#0a1d38;}</style></defs><title>logo1</title><path class="a" d="M47,25.6l-4.5,3.2s-4.7,4-10,1.3a94.83,94.83,0,0,0-10.2-4.8s-3.8-1.3-.4-3.5,9.6-6.4,9.6-6.4a9.85,9.85,0,0,1,7.3-1.2c3.1.9,13.7,3.2,13.7,3.2s3.8,1.9.5,4.3C49.9,23.8,47,25.6,47,25.6Z" transform="translate(0.06 0)"/><path class="b" d="M25.7,44c-.1,1.3,1.1,2.1,2.8,1.9s3.1-1.4,3.2-2.7-1.3-2-2.9-1.8A3.57,3.57,0,0,0,25.7,44Z" transform="translate(0.06 0)"/><path class="b" d="M31.6,47.9c0,1.3,1.3,2.2,2.9,2s3-1.4,3-2.7-1.4-2.1-3-1.9S31.6,46.7,31.6,47.9Z" transform="translate(0.06 0)"/><path class="b" d="M40,42.9c.2,1.4,2,2.4,4.2,2.1s3.7-1.7,3.4-3.1-2.1-2.3-4.2-2S39.8,41.4,40,42.9Z" transform="translate(0.06 0)"/><path class="b" d="M21.1,40.7c-.2,1.1.9,1.9,2.5,1.7s3-1.3,3.1-2.5-1-1.8-2.5-1.6A3.61,3.61,0,0,0,21.1,40.7Z" transform="translate(0.06 0)"/><path class="b" d="M16.8,37.7c-.2,1,.7,1.7,2.2,1.5a3.42,3.42,0,0,0,3-2.3c.2-1.1-.8-1.6-2.2-1.4A3.7,3.7,0,0,0,16.8,37.7Z" transform="translate(0.06 0)"/><path class="b" d="M12.9,35.3c-.3.9.6,1.5,1.9,1.3a3.53,3.53,0,0,0,2.9-2.1c.2-.9-.7-1.5-2-1.3A4,4,0,0,0,12.9,35.3Z" transform="translate(0.06 0)"/><path class="b" d="M9.7,33c-.2.9.6,1.3,1.8,1a3.48,3.48,0,0,0,2.6-2.1c.2-.8-.7-1.3-1.9-1A4,4,0,0,0,9.7,33Z" transform="translate(0.06 0)"/><path class="b" d="M33.9,38.9c0,1.2,1.4,2,3.2,1.8s3.2-1.4,3.1-2.7-1.5-1.9-3.2-1.7A3.46,3.46,0,0,0,33.9,38.9Z" transform="translate(0.06 0)"/><path class="b" d="M40.2,34.3c0,1.2,1.4,2,3.2,1.8s3.2-1.4,3.1-2.7-1.5-1.9-3.2-1.6S40.2,33.2,40.2,34.3Z" transform="translate(0.06 0)"/><path class="b" d="M28.1,35.9c-.1,1.1,1.1,1.8,2.8,1.5s3-1.3,3-2.4-1.3-1.7-2.8-1.5S28.2,34.9,28.1,35.9Z" transform="translate(0.06 0)"/><path class="b" d="M23.3,33.3c-.1,1,.9,1.6,2.4,1.4s2.8-1.2,2.9-2.2-1-1.5-2.5-1.3S23.4,32.3,23.3,33.3Z" transform="translate(0.06 0)"/><path class="b" d="M18.9,31.1c-.2.9.8,1.5,2.2,1.2s2.7-1.2,2.8-2.1-.9-1.4-2.2-1.1A4.13,4.13,0,0,0,18.9,31.1Z" transform="translate(0.06 0)"/><path class="b" d="M15.6,28.9c-.2.8.6,1.3,2,1.1a3.24,3.24,0,0,0,2.7-1.9c.2-.8-.7-1.3-2-1A3.61,3.61,0,0,0,15.6,28.9Z" transform="translate(0.06 0)"/><path class="c" d="M11.7,27.6c-.3.7.5,1.2,1.7,1a3.24,3.24,0,0,0,2.5-1.7c.2-.7-.6-1.1-1.7-.9A3.58,3.58,0,0,0,11.7,27.6Z" transform="translate(0.06 0)"/><path class="b" d="M8.7,26c-.3.7.4,1.1,1.5.9a3.12,3.12,0,0,0,2.4-1.6c.2-.7-.5-1-1.5-.8A2.79,2.79,0,0,0,8.7,26Z" transform="translate(0.06 0)"/><path class="b" d="M14,22.9c-.2.6.5,1,1.6.8a3.09,3.09,0,0,0,2.3-1.5c.2-.6-.6-.9-1.6-.7A2.65,2.65,0,0,0,14,22.9Z" transform="translate(0.06 0)"/><path class="b" d="M10.3,21.7c-.2.6.4.9,1.4.7A3.27,3.27,0,0,0,14,20.9c.2-.6-.5-.9-1.5-.7A4.35,4.35,0,0,0,10.3,21.7Z" transform="translate(0.06 0)"/><path class="b" d="M5.8,24.6c-.2.5.3.8,1.1.7a3,3,0,0,0,2-1.3c.2-.5-.3-.8-1.2-.6A3.27,3.27,0,0,0,5.8,24.6Z" transform="translate(0.06 0)"/><path class="b" d="M7.1,30.8c-.3.6.3,1,1.3.9a2.74,2.74,0,0,0,2.1-1.5c.2-.6-.4-1-1.3-.8A2.88,2.88,0,0,0,7.1,30.8Z" transform="translate(0.06 0)"/><path class="b" d="M5.2,36.4c-.3.6.3,1,1.1.9a2.47,2.47,0,0,0,2-1.4c.2-.6-.3-1-1.2-.9A3,3,0,0,0,5.2,36.4Z" transform="translate(0.06 0)"/><path class="b" d="M1.8,34c-.3.6.2,1,1,.8a2.59,2.59,0,0,0,1.9-1.3c.2-.6-.2-.9-1-.8A3.28,3.28,0,0,0,1.8,34Z" transform="translate(0.06 0)"/><path class="b" d="M4.7,28.9c-.2.5.2.8,1,.7a2.47,2.47,0,0,0,1.8-1.2c.2-.5-.3-.8-1-.6A2.19,2.19,0,0,0,4.7,28.9Z" transform="translate(0.06 0)"/><path class="b" d="M8.4,38.9c-.2.7.3,1.2,1.3,1a2.74,2.74,0,0,0,2.1-1.5c.2-.7-.4-1.1-1.3-1A2.53,2.53,0,0,0,8.4,38.9Z" transform="translate(0.06 0)"/><path class="b" d="M12.2,41.8c-.2.8.4,1.3,1.4,1.2a2.59,2.59,0,0,0,2.2-1.7c.2-.8-.5-1.2-1.5-1.1A2.86,2.86,0,0,0,12.2,41.8Z" transform="translate(0.06 0)"/><path class="b" d="M16.2,45c-.2.8.5,1.4,1.6,1.3a2.84,2.84,0,0,0,2.3-1.8c.1-.8-.6-1.4-1.7-1.2A2.76,2.76,0,0,0,16.2,45Z" transform="translate(0.06 0)"/><path class="b" d="M9.9,50.4c-.1.5.3.9.9.9a1.77,1.77,0,0,0,1.4-1.1c.1-.5-.3-.9-.9-.8A1.61,1.61,0,0,0,9.9,50.4Z" transform="translate(0.06 0)"/><path class="b" d="M5.8,46.4c-.2.7.3,1.1,1.1,1A2.47,2.47,0,0,0,8.8,46c.2-.7-.3-1.1-1.1-1A2.37,2.37,0,0,0,5.8,46.4Z" transform="translate(0.06 0)"/><path class="b" d="M3.2,43.2c-.2.5.1.8.6.7A1.6,1.6,0,0,0,5.1,43c.2-.4-.2-.7-.7-.7A1.59,1.59,0,0,0,3.2,43.2Z" transform="translate(0.06 0)"/><path class="b" d="M0,40.2c-.2.4.1.7.6.6a1.59,1.59,0,0,0,1.2-.9c.2-.4-.1-.7-.6-.6A3.45,3.45,0,0,0,0,40.2Z" transform="translate(0.06 0)"/><path class="b" d="M20.8,49.1c-.1,1,.7,1.6,1.9,1.5a2.78,2.78,0,0,0,2.4-2c.1-.9-.8-1.6-1.9-1.4A2.46,2.46,0,0,0,20.8,49.1Z" transform="translate(0.06 0)"/><path class="b" d="M47.2,30.4c-.2,1,.7,1.6,1.9,1.5a2.78,2.78,0,0,0,2.4-2c.1-.9-.8-1.6-1.9-1.4A2.46,2.46,0,0,0,47.2,30.4Z" transform="translate(0.06 0)"/><path class="b" d="M43.9,19.3l-4.5,3.2s-4.7,4-10,1.3c-3.3-1.8-6.7-3.4-10.2-4.9,0,0-3.8-1.3-.4-3.5S28.4,9,28.4,9a9.85,9.85,0,0,1,7.3-1.2c3.1.9,13.7,3.2,13.7,3.2s3.8,1.9.5,4.3C46.8,17.4,43.9,19.3,43.9,19.3Z" transform="translate(0.06 0)"/><path class="d" d="M40.3,11.8,35.8,15s-4.7,4-10,1.3c-3.3-1.8-6.7-3.4-10.2-4.9,0,0-3.8-1.3-.4-3.6s9.6-6.4,9.6-6.4A10.34,10.34,0,0,1,32.1.2c3.1.9,13.7,3.2,13.7,3.2s3.8,1.9.5,4.3C43.2,10,40.3,11.8,40.3,11.8Z" transform="translate(0.06 0)"/><path class="e" d="M93.81,13.85V40.94H87.22V29.63H77v11.3H70.4V13.85H77v10.5H87.22V13.85Z" transform="translate(0.06 0)"/><path class="e" d="M114,20.61A9.69,9.69,0,0,1,118,24.42a11.45,11.45,0,0,1,1.44,5.82A11.44,11.44,0,0,1,118,36.07,9.69,9.69,0,0,1,114,39.88a13,13,0,0,1-11.4,0,9.65,9.65,0,0,1-4-3.81,11.44,11.44,0,0,1-1.44-5.82,11.45,11.45,0,0,1,1.44-5.82,9.66,9.66,0,0,1,4-3.81,12.94,12.94,0,0,1,11.4,0Zm-8.85,5.71a5.51,5.51,0,0,0-1.28,3.93,5.44,5.44,0,0,0,1.28,3.91,4.2,4.2,0,0,0,3.16,1.34,4.14,4.14,0,0,0,3.14-1.34,5.49,5.49,0,0,0,1.26-3.91,5.56,5.56,0,0,0-1.26-3.93A4.12,4.12,0,0,0,108.33,25,4.17,4.17,0,0,0,105.17,26.32Z" transform="translate(0.06 0)"/><path class="e" d="M137.09,21.32a8.83,8.83,0,0,1,3,5.36H134a3.4,3.4,0,0,0-1.21-2,3.67,3.67,0,0,0-2.36-.75,2.58,2.58,0,0,0-1.69.48,1.67,1.67,0,0,0-.57,1.36,1.59,1.59,0,0,0,1.05,1.49,16.69,16.69,0,0,0,3.31,1,32.92,32.92,0,0,1,4,1.17,6.64,6.64,0,0,1,2.72,1.93,5.35,5.35,0,0,1,1.15,3.6,5.52,5.52,0,0,1-1,3.26,6.57,6.57,0,0,1-2.87,2.22,11.24,11.24,0,0,1-4.44.8,11.44,11.44,0,0,1-6.93-1.92A8.08,8.08,0,0,1,122,33.81h6.32a2.84,2.84,0,0,0,1.17,2.11,4.4,4.4,0,0,0,2.62.73,2.45,2.45,0,0,0,1.69-.52,1.74,1.74,0,0,0,.57-1.36,1.64,1.64,0,0,0-1.05-1.59,19.43,19.43,0,0,0-3.43-1A27.31,27.31,0,0,1,126,31.09a6.45,6.45,0,0,1-2.64-1.86,5.18,5.18,0,0,1-1.11-3.51,5.72,5.72,0,0,1,2.18-4.66,9.52,9.52,0,0,1,6.17-1.78A9.81,9.81,0,0,1,137.09,21.32Z" transform="translate(0.06 0)"/><path class="e" d="M156.19,35.31v5.63h-3a8.49,8.49,0,0,1-5.84-1.86q-2.09-1.86-2.09-6.15V25.08h-2.87V19.56h2.87V14.31h6.55v5.25h4.29v5.52h-4.29v8a2.4,2.4,0,0,0,.52,1.76,2.47,2.47,0,0,0,1.74.5Z" transform="translate(0.06 0)"/><path class="e" d="M180.94,16.07a10.61,10.61,0,0,1,4.1,6.74H178.1A5.35,5.35,0,0,0,176,20.5a6.44,6.44,0,0,0-3.41-.86,6.37,6.37,0,0,0-5,2.09,8.14,8.14,0,0,0-1.88,5.65,8.27,8.27,0,0,0,2,5.94,7.39,7.39,0,0,0,5.61,2.07,6.64,6.64,0,0,0,6.59-4.94h-8.28V25.73h13.76V32.2a13.2,13.2,0,0,1-2.45,4.41,12.63,12.63,0,0,1-4.31,3.3,13.66,13.66,0,0,1-6,1.26,14.24,14.24,0,0,1-7.16-1.74,11.94,11.94,0,0,1-4.73-4.89,15.05,15.05,0,0,1-1.67-7.16,15.06,15.06,0,0,1,1.67-7.17,12,12,0,0,1,4.71-4.89,14.06,14.06,0,0,1,7.11-1.74A13.53,13.53,0,0,1,180.94,16.07Z" transform="translate(0.06 0)"/><path class="e" d="M198.77,20.48a8.06,8.06,0,0,1,4.2-1.15v7h-1.88a6.48,6.48,0,0,0-4,1.11,4.46,4.46,0,0,0-1.44,3.75v9.73h-6.55V19.56h6.55v4A9.3,9.3,0,0,1,198.77,20.48Z" transform="translate(0.06 0)"/><path class="e" d="M206.19,11.07a4.6,4.6,0,0,1,5.67,0,3.2,3.2,0,0,1,1.07,2.47A3.16,3.16,0,0,1,211.86,16a4.6,4.6,0,0,1-5.67,0,3.16,3.16,0,0,1-1.07-2.43A3.2,3.2,0,0,1,206.19,11.07Zm6.09,8.49V40.94h-6.55V19.56Z" transform="translate(0.06 0)"/><path class="e" d="M229.14,20.4a6.46,6.46,0,0,1,2.57,3V12.58h6.55V40.94H231.7V37.07a6.45,6.45,0,0,1-2.57,3,7.74,7.74,0,0,1-4.21,1.11,8.66,8.66,0,0,1-4.73-1.32,9,9,0,0,1-3.29-3.81,13.21,13.21,0,0,1-1.21-5.82,13.18,13.18,0,0,1,1.21-5.84,9.06,9.06,0,0,1,3.29-3.79,8.66,8.66,0,0,1,4.73-1.32A7.75,7.75,0,0,1,229.14,20.4Zm-5.5,6a5.41,5.41,0,0,0-1.28,3.83,5.41,5.41,0,0,0,1.28,3.83,4.81,4.81,0,0,0,6.78,0,5.34,5.34,0,0,0,1.32-3.79,5.33,5.33,0,0,0-1.32-3.81A4.46,4.46,0,0,0,227,25,4.41,4.41,0,0,0,223.64,26.42Z" transform="translate(0.06 0)"/><path class="e" d="M257,21.32a8.83,8.83,0,0,1,3,5.36H254a3.4,3.4,0,0,0-1.21-2,3.67,3.67,0,0,0-2.36-.75,2.58,2.58,0,0,0-1.69.48,1.67,1.67,0,0,0-.57,1.36,1.59,1.59,0,0,0,1.05,1.49,16.69,16.69,0,0,0,3.31,1,32.92,32.92,0,0,1,4,1.17,6.64,6.64,0,0,1,2.72,1.93,5.35,5.35,0,0,1,1.15,3.6,5.52,5.52,0,0,1-1,3.26,6.57,6.57,0,0,1-2.87,2.22,11.24,11.24,0,0,1-4.44.8,11.44,11.44,0,0,1-6.93-1.92A8.08,8.08,0,0,1,242,33.81h6.32a2.84,2.84,0,0,0,1.17,2.11,4.4,4.4,0,0,0,2.62.73,2.45,2.45,0,0,0,1.69-.52,1.74,1.74,0,0,0,.57-1.36,1.64,1.64,0,0,0-1.05-1.59,19.43,19.43,0,0,0-3.43-1A27.31,27.31,0,0,1,246,31.09a6.45,6.45,0,0,1-2.64-1.86,5.18,5.18,0,0,1-1.11-3.51,5.72,5.72,0,0,1,2.18-4.66,9.52,9.52,0,0,1,6.17-1.78A9.81,9.81,0,0,1,257,21.32Z" transform="translate(0.06 0)"/></svg>