<?xml version="1.0" encoding="utf-8"?>
<!-- Generator: Adobe Illustrator 21.0.0, SVG Export Plug-In . SVG Version: 6.00 Build 0)  -->
<svg version="1.1" id="Layer_1" xmlns="http://www.w3.org/2000/svg" xmlns:xlink="http://www.w3.org/1999/xlink" x="0px" y="0px"
	 viewBox="0 0 260.5 51.3" style="enable-background:new 0 0 260.5 51.3;" xml:space="preserve">
<style type="text/css">
	.st0{opacity:0.67;fill:#FFFFFF;enable-background:new    ;}
	.st1{opacity:0.62;fill:#FFFFFF;enable-background:new    ;}
	.st2{opacity:0.61;fill:#FFFFFF;enable-background:new    ;}
	.st3{opacity:0.35;fill:#FFFFFF;enable-background:new    ;}
	.st4{fill:#FFFFFF;}
</style>
<title>logo1</title>
<path class="st0" d="M47.1,25.6l-4.5,3.2c0,0-4.7,4-10,1.3c-3.3-1.8-6.7-3.4-10.2-4.8c0,0-3.8-1.3-0.4-3.5s9.6-6.4,9.6-6.4
	c2.2-1.3,4.8-1.8,7.3-1.2c3.1,0.9,13.7,3.2,13.7,3.2s3.8,1.9,0.5,4.3C50,23.8,47.1,25.6,47.1,25.6z"/>
<path class="st1" d="M25.8,44c-0.1,1.3,1.1,2.1,2.8,1.9s3.1-1.4,3.2-2.7s-1.3-2-2.9-1.8C27.4,41.5,26.2,42.6,25.8,44z"/>
<path class="st1" d="M31.7,47.9c0,1.3,1.3,2.2,2.9,2s3-1.4,3-2.7s-1.4-2.1-3-1.9S31.7,46.7,31.7,47.9z"/>
<path class="st1" d="M40.1,42.9c0.2,1.4,2,2.4,4.2,2.1s3.7-1.7,3.4-3.1s-2.1-2.3-4.2-2S39.9,41.4,40.1,42.9z"/>
<path class="st1" d="M21.2,40.7c-0.2,1.1,0.9,1.9,2.5,1.7s3-1.3,3.1-2.5s-1-1.8-2.5-1.6C22.8,38.4,21.6,39.4,21.2,40.7z"/>
<path class="st1" d="M16.9,37.7c-0.2,1,0.7,1.7,2.2,1.5c1.4-0.1,2.6-1,3-2.3c0.2-1.1-0.8-1.6-2.2-1.4C18.5,35.6,17.4,36.5,16.9,37.7
	z"/>
<path class="st1" d="M13,35.3c-0.3,0.9,0.6,1.5,1.9,1.3c1.3-0.1,2.4-0.9,2.9-2.1c0.2-0.9-0.7-1.5-2-1.3C14.6,33.4,13.5,34.2,13,35.3
	z"/>
<path class="st1" d="M9.8,33c-0.2,0.9,0.6,1.3,1.8,1c1.2-0.2,2.1-1,2.6-2.1c0.2-0.8-0.7-1.3-1.9-1C11.2,31.2,10.3,32,9.8,33z"/>
<path class="st1" d="M34,38.9c0,1.2,1.4,2,3.2,1.8s3.2-1.4,3.1-2.7s-1.5-1.9-3.2-1.7C35.6,36.4,34.3,37.5,34,38.9z"/>
<path class="st1" d="M40.3,34.3c0,1.2,1.4,2,3.2,1.8s3.2-1.4,3.1-2.7s-1.5-1.9-3.2-1.6C41.7,32.1,40.3,33.2,40.3,34.3z"/>
<path class="st1" d="M28.2,35.9c-0.1,1.1,1.1,1.8,2.8,1.5c1.7-0.3,3-1.3,3-2.4s-1.3-1.7-2.8-1.5C29.7,33.7,28.3,34.9,28.2,35.9z"/>
<path class="st1" d="M23.4,33.3c-0.1,1,0.9,1.6,2.4,1.4s2.8-1.2,2.9-2.2s-1-1.5-2.5-1.3S23.5,32.3,23.4,33.3z"/>
<path class="st1" d="M19,31.1c-0.2,0.9,0.8,1.5,2.2,1.2s2.7-1.2,2.8-2.1s-0.9-1.4-2.2-1.1C20.6,29.3,19.6,30.1,19,31.1z"/>
<path class="st1" d="M15.7,28.9c-0.2,0.8,0.6,1.3,2,1.1c1.2-0.1,2.2-0.8,2.7-1.9c0.2-0.8-0.7-1.3-2-1C17.2,27.2,16.2,27.9,15.7,28.9
	z"/>
<path class="st2" d="M11.8,27.6c-0.3,0.7,0.5,1.2,1.7,1c1.1-0.1,2-0.8,2.5-1.7c0.2-0.7-0.6-1.1-1.7-0.9
	C13.2,26.1,12.3,26.7,11.8,27.6z"/>
<path class="st1" d="M8.8,26c-0.3,0.7,0.4,1.1,1.5,0.9c1-0.1,1.9-0.7,2.4-1.6c0.2-0.7-0.5-1-1.5-0.8C10.1,24.5,9.2,25.1,8.8,26z"/>
<path class="st1" d="M14.1,22.9c-0.2,0.6,0.5,1,1.6,0.8c1-0.1,1.8-0.7,2.3-1.5c0.2-0.6-0.6-0.9-1.6-0.7C15.4,21.5,14.5,22,14.1,22.9
	z"/>
<path class="st1" d="M10.4,21.7c-0.2,0.6,0.4,0.9,1.4,0.7c0.9-0.1,1.8-0.7,2.3-1.5c0.2-0.6-0.5-0.9-1.5-0.7
	C11.7,20.5,10.9,21,10.4,21.7z"/>
<path class="st1" d="M5.9,24.6c-0.2,0.5,0.3,0.8,1.1,0.7c0.8-0.1,1.5-0.6,2-1.3c0.2-0.5-0.3-0.8-1.2-0.6C7,23.6,6.3,24,5.9,24.6z"/>
<path class="st1" d="M7.2,30.8c-0.3,0.6,0.3,1,1.3,0.9c0.9-0.1,1.7-0.7,2.1-1.5c0.2-0.6-0.4-1-1.3-0.8C8.4,29.5,7.6,30,7.2,30.8z"/>
<path class="st1" d="M5.3,36.4c-0.3,0.6,0.3,1,1.1,0.9c0.9-0.1,1.6-0.6,2-1.4c0.2-0.6-0.3-1-1.2-0.9C6.4,35.2,5.7,35.7,5.3,36.4z"/>
<path class="st1" d="M1.9,34c-0.3,0.6,0.2,1,1,0.8c0.8-0.1,1.5-0.6,1.9-1.3c0.2-0.6-0.2-0.9-1-0.8C3,32.9,2.3,33.4,1.9,34z"/>
<path class="st1" d="M4.8,28.9c-0.2,0.5,0.2,0.8,1,0.7c0.8-0.1,1.4-0.5,1.8-1.2c0.2-0.5-0.3-0.8-1-0.6C5.8,27.8,5.1,28.2,4.8,28.9z"
	/>
<path class="st1" d="M8.5,38.9c-0.2,0.7,0.3,1.2,1.3,1c0.9-0.1,1.7-0.7,2.1-1.5c0.2-0.7-0.4-1.1-1.3-1C9.6,37.5,8.8,38.1,8.5,38.9z"
	/>
<path class="st1" d="M12.3,41.8c-0.2,0.8,0.4,1.3,1.4,1.2c1-0.1,1.9-0.8,2.2-1.7c0.2-0.8-0.5-1.2-1.5-1.1
	C13.4,40.4,12.7,41,12.3,41.8z"/>
<path class="st1" d="M16.3,45c-0.2,0.8,0.5,1.4,1.6,1.3c1-0.1,1.9-0.8,2.3-1.8c0.1-0.8-0.6-1.4-1.7-1.2C17.5,43.4,16.6,44.1,16.3,45
	z"/>
<path class="st1" d="M10,50.4c-0.1,0.5,0.3,0.9,0.9,0.9c0.6-0.1,1.2-0.5,1.4-1.1c0.1-0.5-0.3-0.9-0.9-0.8
	C10.7,49.4,10.2,49.8,10,50.4z"/>
<path class="st1" d="M5.9,46.4c-0.2,0.7,0.3,1.1,1.1,1c0.8-0.1,1.5-0.6,1.9-1.4c0.2-0.7-0.3-1.1-1.1-1C6.9,45.1,6.2,45.6,5.9,46.4z"
	/>
<path class="st1" d="M3.3,43.2c-0.2,0.5,0.1,0.8,0.6,0.7c0.6,0,1.1-0.4,1.3-0.9c0.2-0.4-0.2-0.7-0.7-0.7C3.9,42.4,3.5,42.7,3.3,43.2
	z"/>
<path class="st1" d="M0.1,40.2c-0.2,0.4,0.1,0.7,0.6,0.6c0.5-0.1,1-0.4,1.2-0.9c0.2-0.4-0.1-0.7-0.6-0.6C0.8,39.5,0.4,39.8,0.1,40.2
	z"/>
<path class="st1" d="M20.9,49.1c-0.1,1,0.7,1.6,1.9,1.5c1.1-0.1,2.1-0.9,2.4-2c0.1-0.9-0.8-1.6-1.9-1.4C22.1,47.2,21.1,48,20.9,49.1
	z"/>
<path class="st1" d="M47.3,30.4c-0.2,1,0.7,1.6,1.9,1.5c1.1-0.1,2.1-0.9,2.4-2c0.1-0.9-0.8-1.6-1.9-1.4
	C48.5,28.5,47.5,29.3,47.3,30.4z"/>
<path class="st1" d="M44,19.3l-4.5,3.2c0,0-4.7,4-10,1.3c-3.3-1.8-6.7-3.4-10.2-4.9c0,0-3.8-1.3-0.4-3.5S28.5,9,28.5,9
	c2.2-1.3,4.8-1.8,7.3-1.2C38.9,8.7,49.5,11,49.5,11s3.8,1.9,0.5,4.3C46.9,17.4,44,19.3,44,19.3z"/>
<path class="st3" d="M40.4,11.8L35.9,15c0,0-4.7,4-10,1.3c-3.3-1.8-6.7-3.4-10.2-4.9c0,0-3.8-1.3-0.4-3.6s9.6-6.4,9.6-6.4
	c2.2-1.3,4.8-1.7,7.3-1.2c3.1,0.9,13.7,3.2,13.7,3.2s3.8,1.9,0.5,4.3C43.3,10,40.4,11.8,40.4,11.8z"/>
<path class="st4" d="M93.9,13.9v27.1h-6.6V29.6H77.1v11.3h-6.6V13.9h6.6v10.5h10.2V13.9H93.9z"/>
<path class="st4" d="M114.1,20.6c1.7,0.9,3.1,2.2,4,3.8c1,1.8,1.5,3.8,1.4,5.8c0,2-0.4,4-1.4,5.8c-0.9,1.6-2.3,3-4,3.8
	c-3.6,1.8-7.8,1.8-11.4,0c-1.7-0.9-3.1-2.2-4-3.8c-1-1.8-1.5-3.8-1.4-5.8c0-2,0.5-4,1.4-5.8c0.9-1.6,2.3-3,4-3.8
	C106.3,18.9,110.5,18.9,114.1,20.6L114.1,20.6z M105.2,26.3c-0.9,1.1-1.4,2.5-1.3,3.9c-0.1,1.4,0.4,2.8,1.3,3.9
	c0.8,0.9,2,1.4,3.2,1.3c1.2,0,2.3-0.5,3.1-1.3c0.9-1.1,1.4-2.5,1.3-3.9c0.1-1.4-0.4-2.8-1.3-3.9c-0.8-0.9-1.9-1.3-3.1-1.3
	C107.2,25,106,25.4,105.2,26.3L105.2,26.3z"/>
<path class="st4" d="M137.1,21.3c1.6,1.4,2.7,3.3,3,5.4h-6.1c-0.2-0.8-0.6-1.5-1.2-2c-0.7-0.5-1.5-0.8-2.4-0.8
	c-0.6,0-1.2,0.1-1.7,0.5c-0.4,0.3-0.6,0.8-0.6,1.4c0,0.7,0.4,1.3,1.1,1.5c1.1,0.4,2.2,0.8,3.3,1c1.4,0.3,2.7,0.7,4,1.2
	c1.1,0.4,2,1.1,2.7,1.9c0.8,1,1.2,2.3,1.1,3.6c0,1.2-0.3,2.3-1,3.3c-0.7,1-1.7,1.8-2.9,2.2c-1.4,0.6-2.9,0.8-4.4,0.8
	c-2.5,0.1-4.9-0.6-6.9-1.9c-1.8-1.3-2.9-3.3-3.2-5.5h6.3c0.1,0.8,0.5,1.6,1.2,2.1c0.8,0.5,1.7,0.8,2.6,0.7c0.6,0,1.2-0.1,1.7-0.5
	c0.4-0.3,0.6-0.8,0.6-1.4c0-0.7-0.4-1.3-1.1-1.6c-1.1-0.4-2.3-0.8-3.4-1c-1.3-0.3-2.6-0.6-3.9-1.1c-1-0.4-1.9-1-2.6-1.9
	c-0.8-1-1.2-2.2-1.1-3.5c-0.1-1.8,0.8-3.5,2.2-4.7c1.8-1.3,4-1.9,6.2-1.8C133,19.2,135.3,19.9,137.1,21.3z"/>
<path class="st4" d="M156.3,35.3v5.6h-3c-2.1,0.1-4.2-0.5-5.8-1.9c-1.4-1.2-2.1-3.3-2.1-6.2v-7.9h-2.9v-5.5h2.9v-5.2h6.6v5.3h4.3
	v5.5h-4.3v8c-0.1,0.6,0.1,1.3,0.5,1.8c0.5,0.4,1.1,0.6,1.7,0.5L156.3,35.3z"/>
<path class="st4" d="M181,16.1c2.2,1.6,3.7,4,4.1,6.7h-6.9c-0.5-1-1.2-1.8-2.1-2.3c-1-0.6-2.2-0.9-3.4-0.9c-1.9-0.1-3.7,0.7-5,2.1
	c-1.3,1.6-2,3.6-1.9,5.6c-0.1,2.2,0.6,4.3,2,5.9c1.5,1.4,3.5,2.2,5.6,2.1c3.1,0.1,5.8-2,6.6-4.9h-8.3v-4.7h13.8v6.5
	c-0.5,1.6-1.4,3.1-2.4,4.4c-1.2,1.4-2.7,2.5-4.3,3.3c-1.9,0.9-3.9,1.3-6,1.3c-2.5,0.1-5-0.5-7.2-1.7c-2-1.1-3.7-2.8-4.7-4.9
	c-1.1-2.2-1.7-4.7-1.7-7.2c0-2.5,0.5-5,1.7-7.2c1.1-2,2.7-3.7,4.7-4.9c2.2-1.2,4.6-1.8,7.1-1.7C175.6,13.5,178.6,14.3,181,16.1z"/>
<path class="st4" d="M198.8,20.5c1.3-0.8,2.7-1.2,4.2-1.1v7h-1.9c-1.4-0.1-2.8,0.3-4,1.1c-1,1-1.6,2.3-1.4,3.8v9.7h-6.6V19.6h6.6v4
	C196.5,22.3,197.6,21.2,198.8,20.5z"/>
<path class="st4" d="M206.3,11.1c1.7-1.3,4-1.3,5.7,0c0.7,0.6,1.1,1.5,1.1,2.5c0,0.9-0.4,1.8-1.1,2.5c-1.7,1.3-4,1.3-5.7,0
	c-0.7-0.6-1.1-1.5-1.1-2.4C205.1,12.6,205.5,11.7,206.3,11.1z M212.3,19.6v21.4h-6.6V19.6H212.3z"/>
<path class="st4" d="M229.2,20.4c1.1,0.7,2,1.8,2.6,3V12.6h6.6v28.4h-6.6v-3.9c-0.5,1.2-1.4,2.3-2.6,3c-1.3,0.8-2.7,1.2-4.2,1.1
	c-1.7,0-3.3-0.4-4.7-1.3c-1.4-0.9-2.6-2.3-3.3-3.8c-0.8-1.8-1.3-3.8-1.2-5.8c0-2,0.4-4,1.2-5.8c0.7-1.5,1.9-2.9,3.3-3.8
	c1.4-0.9,3.1-1.3,4.7-1.3C226.5,19.2,227.9,19.6,229.2,20.4z M223.7,26.4c-0.9,1.1-1.4,2.4-1.3,3.8c-0.1,1.4,0.4,2.8,1.3,3.8
	c1.9,1.9,4.9,1.9,6.8,0c0.9-1,1.4-2.4,1.3-3.8c0.1-1.4-0.4-2.8-1.3-3.8c-0.9-1-2.1-1.5-3.4-1.5C225.8,25,224.6,25.5,223.7,26.4
	L223.7,26.4z"/>
<path class="st4" d="M257.1,21.3c1.6,1.4,2.7,3.3,3,5.4h-6c-0.2-0.8-0.6-1.5-1.2-2c-0.7-0.5-1.5-0.8-2.4-0.8c-0.6,0-1.2,0.1-1.7,0.5
	c-0.4,0.3-0.6,0.8-0.6,1.4c0,0.7,0.4,1.3,1.1,1.5c1.1,0.4,2.2,0.8,3.3,1c1.4,0.3,2.7,0.7,4,1.2c1.1,0.4,2,1.1,2.7,1.9
	c0.8,1,1.2,2.3,1.1,3.6c0,1.2-0.3,2.3-1,3.3c-0.7,1-1.7,1.8-2.9,2.2c-1.4,0.6-2.9,0.8-4.4,0.8c-2.5,0.1-4.9-0.6-6.9-1.9
	c-1.8-1.3-2.9-3.3-3.2-5.5h6.3c0.1,0.8,0.5,1.6,1.2,2.1c0.8,0.5,1.7,0.8,2.6,0.7c0.6,0,1.2-0.1,1.7-0.5c0.4-0.3,0.6-0.8,0.6-1.4
	c0-0.7-0.4-1.3-1.1-1.6c-1.1-0.4-2.3-0.8-3.4-1c-1.3-0.3-2.6-0.6-3.9-1.1c-1-0.4-1.9-1-2.6-1.9c-0.8-1-1.2-2.2-1.1-3.5
	c-0.1-1.8,0.8-3.5,2.2-4.7c1.8-1.3,4-1.9,6.2-1.8C253,19.2,255.2,19.9,257.1,21.3z"/>
</svg>
