<?xml version="1.0" encoding="utf-8"?>
<!-- Generator: Adobe Illustrator 21.0.0, SVG Export Plug-In . SVG Version: 6.00 Build 0)  -->
<svg version="1.1" id="Layer_1" xmlns="http://www.w3.org/2000/svg" xmlns:xlink="http://www.w3.org/1999/xlink" x="0px" y="0px"
	 viewBox="0 0 52.2 44.3" style="enable-background:new 0 0 52.2 44.3;" xml:space="preserve">
<style type="text/css">
	.st0{opacity:0.67;fill:#065ADC;enable-background:new    ;}
	.st1{opacity:0.62;fill:#065ADC;enable-background:new    ;}
	.st2{opacity:0.61;fill:#065ADC;enable-background:new    ;}
	.st3{opacity:0.35;fill:#065ADC;enable-background:new    ;}
</style>
<g>
	<path class="st0" d="M42.8,22.1l-3.8,2.7c0,0-4,3.4-8.4,1.1c-2.8-1.5-5.6-2.9-8.6-4c0,0-3.2-1.1-0.3-3c2.9-1.9,8.1-5.4,8.1-5.4
		c1.9-1.1,4-1.5,6.2-1c2.6,0.8,11.6,2.7,11.6,2.7s3.2,1.6,0.4,3.6C45.3,20.6,42.8,22.1,42.8,22.1z"/>
	<path class="st1" d="M24.9,37.6c-0.1,1.1,0.9,1.8,2.4,1.6c1.4-0.2,2.6-1.2,2.7-2.3c0.1-1.1-1.1-1.7-2.4-1.5
		C26.1,35.6,25.1,36.6,24.9,37.6z"/>
	<path class="st1" d="M29.9,40.9c0,1.1,1.1,1.9,2.4,1.7c1.3-0.2,2.5-1.2,2.5-2.3c0-1.1-1.2-1.8-2.5-1.6C31,38.9,29.9,39.9,29.9,40.9
		z"/>
	<path class="st1" d="M36.9,36.7c0.2,1.2,1.7,2,3.5,1.8c1.9-0.3,3.1-1.4,2.9-2.6c-0.3-1.2-1.8-1.9-3.5-1.7
		C38,34.4,36.8,35.4,36.9,36.7z"/>
	<path class="st1" d="M21,34.8c-0.2,0.9,0.8,1.6,2.1,1.4c1.3-0.2,2.5-1.1,2.6-2.1c0.1-1-0.8-1.5-2.1-1.3C22.4,33,21.3,33.7,21,34.8z
		"/>
	<path class="st1" d="M17.4,32.3c-0.2,0.8,0.6,1.4,1.9,1.3c1.3-0.2,2.4-1,2.5-1.9c0.2-0.9-0.7-1.3-1.9-1.2
		C18.7,30.6,17.8,31.3,17.4,32.3z"/>
	<path class="st1" d="M14.1,30.3c-0.3,0.8,0.5,1.3,1.6,1.1c1.1-0.1,1.9-0.8,2.4-1.8c0.2-0.8-0.6-1.3-1.7-1.1
		C15.4,28.8,14.5,29.4,14.1,30.3z"/>
	<path class="st1" d="M11.4,28.4c-0.2,0.8,0.5,1.1,1.5,0.8c1-0.2,1.8-0.8,2.2-1.8c0.2-0.7-0.6-1.1-1.6-0.8
		C12.7,26.8,11.8,27.4,11.4,28.4z"/>
	<path class="st1" d="M31.8,33.3c0,1,1.2,1.7,2.7,1.5c1.5-0.2,2.7-1.2,2.6-2.3s-1.3-1.6-2.7-1.4C33,31.3,31.9,32.4,31.8,33.3z"/>
	<path class="st1" d="M37.1,29.4c0,1,1.2,1.7,2.7,1.5c1.5-0.2,2.7-1.2,2.6-2.3s-1.3-1.6-2.7-1.3C38.2,27.6,37.1,28.5,37.1,29.4z"/>
	<path class="st1" d="M26.9,30.8c-0.1,0.9,0.9,1.5,2.4,1.3c1.4-0.3,2.5-1.1,2.5-2s-1.1-1.4-2.4-1.3C28.2,28.9,27,30,26.9,30.8z"/>
	<path class="st1" d="M22.9,28.6c-0.1,0.8,0.8,1.3,2,1.2c1.3-0.2,2.4-1,2.4-1.9c0.1-0.8-0.8-1.3-2.1-1.1C24,27,22.9,27.8,22.9,28.6z
		"/>
	<path class="st1" d="M19.1,26.7c-0.2,0.8,0.7,1.3,1.9,1s2.3-1,2.4-1.8c0.1-0.8-0.8-1.2-1.9-0.9C20.4,25.3,19.4,26.1,19.1,26.7z"/>
	<path class="st1" d="M16.4,24.9c-0.2,0.7,0.5,1.1,1.7,0.9s2.1-0.9,2.3-1.6c0.2-0.7-0.6-1.1-1.7-0.8C17.7,23.5,16.9,24.1,16.4,24.9z
		"/>
	<path class="st2" d="M13.1,23.8c-0.3,0.6,0.4,1,1.4,0.8c0.9-0.1,1.7-0.7,2.1-1.4c0.2-0.6-0.5-0.9-1.4-0.8
		C14.3,22.6,13.5,23,13.1,23.8z"/>
	<path class="st1" d="M10.5,22.4c-0.3,0.6,0.3,0.9,1.3,0.8c0.8-0.1,1.6-0.6,2-1.3c0.2-0.6-0.4-0.8-1.3-0.7
		C11.7,21.2,11,21.7,10.5,22.4z"/>
	<path class="st1" d="M15,19.8c-0.2,0.5,0.4,0.8,1.3,0.7c0.8-0.1,1.5-0.6,1.9-1.3c0.2-0.5-0.5-0.8-1.3-0.6
		C16.2,18.7,15.4,19.1,15,19.8z"/>
	<path class="st1" d="M11.9,18.8c-0.2,0.5,0.3,0.8,1.2,0.6c0.8-0.1,1.5-0.6,1.9-1.3c0.2-0.5-0.4-0.8-1.3-0.6
		C13,17.8,12.3,18.2,11.9,18.8z"/>
	<path class="st1" d="M8.1,21.3c-0.2,0.4,0.3,0.7,0.9,0.6c0.7-0.1,1.3-0.5,1.7-1.1c0.2-0.4-0.3-0.7-1-0.5
		C9.1,20.3,8.5,20.8,8.1,21.3z"/>
	<path class="st1" d="M9.2,26.5c-0.3,0.5,0.3,0.8,1.1,0.8c0.8-0.1,1.4-0.6,1.8-1.3c0.2-0.5-0.3-0.8-1.1-0.7
		C10.2,25.4,9.5,25.9,9.2,26.5z"/>
	<path class="st1" d="M7.6,31.2c-0.3,0.5,0.3,0.8,0.9,0.8c0.8-0.1,1.3-0.5,1.7-1.2c0.2-0.5-0.3-0.8-1-0.8
		C8.5,30.2,7.9,30.6,7.6,31.2z"/>
	<path class="st1" d="M4.7,29.2c-0.3,0.5,0.2,0.8,0.8,0.7c0.7-0.1,1.3-0.5,1.6-1.1C7.3,28.3,7,28,6.3,28.1
		C5.7,28.3,5.1,28.7,4.7,29.2z"/>
	<path class="st1" d="M7.2,24.9C7,25.3,7.3,25.6,8,25.5c0.6-0.1,1.2-0.4,1.5-1c0.2-0.4-0.3-0.7-0.8-0.5C8,24,7.5,24.4,7.2,24.9z"/>
	<path class="st1" d="M10.3,33.3c-0.2,0.6,0.3,1,1.1,0.8c0.8-0.1,1.4-0.6,1.8-1.3c0.2-0.6-0.3-0.9-1.1-0.8
		C11.3,32.1,10.6,32.6,10.3,33.3z"/>
	<path class="st1" d="M13.5,35.8c-0.2,0.7,0.3,1.1,1.2,1c0.8-0.1,1.5-0.6,1.9-1.4c0.2-0.7-0.4-1-1.3-0.9
		C14.5,34.5,13.8,35.1,13.5,35.8z"/>
	<path class="st1" d="M16.9,38.5c-0.2,0.7,0.4,1.2,1.3,1.1c0.8-0.1,1.6-0.7,1.9-1.5c0.1-0.7-0.5-1.2-1.4-1
		C17.9,37.1,17.2,37.7,16.9,38.5z"/>
	<path class="st1" d="M11.6,43c-0.1,0.4,0.3,0.8,0.8,0.8c0.5-0.1,1-0.4,1.2-0.9c0.1-0.4-0.3-0.8-0.8-0.7
		C12.2,42.2,11.8,42.5,11.6,43z"/>
	<path class="st1" d="M8.1,39.7c-0.2,0.6,0.3,0.9,0.9,0.8c0.7-0.1,1.3-0.5,1.6-1.2c0.2-0.6-0.3-0.9-0.9-0.8
		C8.9,38.6,8.4,39.1,8.1,39.7z"/>
	<path class="st1" d="M5.9,37c-0.2,0.4,0.1,0.7,0.5,0.6c0.5-0.1,0.9-0.3,1.1-0.8c0.2-0.3-0.2-0.6-0.6-0.6C6.5,36.3,6.1,36.5,5.9,37z
		"/>
	<path class="st1" d="M3.2,34.4C3,34.8,3.3,35,3.7,34.9c0.4-0.1,0.8-0.3,1-0.8c0.2-0.3-0.1-0.6-0.5-0.5C3.9,33.8,3.5,34.1,3.2,34.4z
		"/>
	<path class="st1" d="M20.8,41.9c-0.1,0.8,0.6,1.3,1.6,1.3c0.9-0.1,1.8-0.8,2-1.7c0.1-0.8-0.7-1.3-1.6-1.2
		C21.8,40.3,21,41,20.8,41.9z"/>
	<path class="st1" d="M43,26.2c-0.2,0.8,0.6,1.3,1.6,1.3c0.9-0.1,1.8-0.8,2-1.7c0.1-0.8-0.7-1.3-1.6-1.2C44,24.6,43.3,25.2,43,26.2z
		"/>
	<path class="st1" d="M40.2,16.8l-3.8,2.7c0,0-4,3.4-8.4,1.1c-2.8-1.5-5.6-2.9-8.6-4.1c0,0-3.2-1.1-0.3-3s8.1-5.4,8.1-5.4
		c1.9-1.1,4-1.5,6.2-1c2.6,0.8,11.6,2.7,11.6,2.7s3.2,1.6,0.4,3.6C42.7,15.2,40.2,16.8,40.2,16.8z"/>
	<path class="st3" d="M37.2,10.5l-3.8,2.7c0,0-4,3.4-8.4,1.1c-2.8-1.5-5.6-2.9-8.6-4.1c0,0-3.2-1.1-0.3-3s8.1-5.4,8.1-5.4
		c1.9-1.1,4-1.4,6.2-1c2.6,0.8,11.6,2.7,11.6,2.7S45,5,42.3,7C39.6,9,37.2,10.5,37.2,10.5z"/>
</g>
</svg>
